# xmcd
#
# Track frame offsets:
#	150
#	12068
#	29970
#	43933
#	55945
#	67858
#	80682
#	93669
#	106016
#	120888
#	131942
#	146019
#	158021
#	182951
#	197188
#
# Disc length: 2836 seconds
#
# Revision: 0
# Processed by: cddbd v1.4PL0 Copyright (c) Steve Scherf et al.
# Submitted via: dBpowerAMP V4.0
#
DISCID=d30b120f
DTITLE=Bronco - Homenaje a Los Grandes Grupos
DYEAR=1997
DGENRE=Latin
TTITLE0=Dejenme Llorar
TTITLE1=Hipocresia
TTITLE2=Puente de Piedra
TTITLE3=Cenizas
TTITLE4=Olvidarte...Nunca
TTITLE5=Por Qué
TTITLE6=Un Sueño
TTITLE7=Siempre Te Amaré
TTITLE8=Adios, Adios Amor
TTITLE9=Lo Que Te Queda
TTITLE10=Cuatro Lagrimas
TTITLE11=Corazon de Roca
TTITLE12=Naila
TTITLE13=El Golpe Traidor
TTITLE14=Dejenme Si Estoy Llorando
EXTD=
EXTT0=
EXTT1=
EXTT2=
EXTT3=
EXTT4=
EXTT5=
EXTT6=
EXTT7=
EXTT8=
EXTT9=
EXTT10=
EXTT11=
EXTT12=
EXTT13=
EXTT14=
PLAYORDER=
